# Blender v2.74 (sub 0) OBJ File: 'Lamp.blend'
# www.blender.org
o Cone
v -0.004271 -2.423588 -1.509223
v -0.004271 -0.285391 -0.819065
v 0.290164 -2.423588 -1.480224
v 0.145070 -0.285391 -0.803327
v 0.573284 -2.423588 -1.394340
v 0.288673 -0.285391 -0.756718
v 0.834208 -2.423588 -1.254873
v 0.421017 -0.285391 -0.681028
v 1.062911 -2.423588 -1.067182
v 0.537018 -0.285391 -0.579167
v 1.250602 -2.423588 -0.838479
v 0.632218 -0.285391 -0.455048
v 1.390069 -2.423588 -0.577555
v 0.702957 -0.285391 -0.313443
v 1.475953 -2.423588 -0.294435
v 0.746519 -0.285391 -0.159792
v 1.504952 -2.423588 -0.000000
v 0.761228 -0.285391 -0.000000
v 1.475953 -2.423588 0.294435
v 0.746519 -0.285391 0.159792
v 1.390069 -2.423588 0.577555
v 0.702958 -0.285391 0.313443
v 1.250602 -2.423588 0.838479
v 0.632218 -0.285391 0.455048
v 1.062911 -2.423588 1.067182
v 0.537018 -0.285391 0.579167
v 0.834208 -2.423588 1.254873
v 0.421017 -0.285391 0.681028
v 0.573283 -2.423588 1.394341
v 0.288673 -0.285391 0.756718
v 0.290163 -2.423588 1.480224
v 0.145070 -0.285391 0.803327
v -0.004271 -2.423588 1.509223
v -0.004271 -0.285391 0.819065
v -0.298706 -2.423588 1.480224
v -0.153613 -0.285391 0.803327
v -0.581826 -2.423588 1.394340
v -0.297215 -0.285391 0.756717
v -0.842751 -2.423588 1.254873
v -0.429560 -0.285391 0.681028
v -1.071454 -2.423588 1.067181
v -0.545561 -0.285391 0.579166
v -1.259145 -2.423588 0.838479
v -0.640760 -0.285391 0.455048
v -1.398612 -2.423588 0.577554
v -0.711500 -0.285391 0.313442
v -1.484495 -2.423588 0.294434
v -0.755061 -0.285391 0.159791
v -1.513494 -2.423588 -0.000001
v -0.769769 -0.285391 -0.000001
v -1.484495 -2.423588 -0.294436
v -0.755061 -0.285391 -0.159793
v -1.398611 -2.423588 -0.577556
v -0.711499 -0.285391 -0.313444
v -1.259143 -2.423588 -0.838481
v -0.640759 -0.285391 -0.455049
v -1.071452 -2.423588 -1.067183
v -0.545559 -0.285391 -0.579167
v -0.842749 -2.423588 -1.254874
v -0.429558 -0.285391 -0.681029
v -0.581824 -2.423588 -1.394341
v -0.297213 -0.285391 -0.756718
v -0.298704 -2.423588 -1.480224
v -0.153611 -0.285391 -0.803328
v 0.000000 -0.280128 -0.280128
v 0.054650 -0.280128 -0.274745
v 0.107200 -0.280128 -0.258804
v 0.155631 -0.280128 -0.232918
v 0.198080 -0.280128 -0.198080
v 0.232918 -0.280128 -0.155631
v 0.258804 -0.280128 -0.107200
v 0.274745 -0.280128 -0.054650
v 0.280128 -0.280128 -0.000000
v 0.000000 0.280128 0.000000
v 0.274745 -0.280128 0.054650
v 0.258804 -0.280128 0.107200
v 0.232918 -0.280128 0.155631
v 0.198080 -0.280128 0.198080
v 0.155631 -0.280128 0.232918
v 0.107200 -0.280128 0.258804
v 0.054650 -0.280128 0.274745
v -0.000000 -0.280128 0.280128
v -0.054650 -0.280128 0.274745
v -0.107200 -0.280128 0.258804
v -0.155631 -0.280128 0.232918
v -0.198080 -0.280128 0.198080
v -0.232918 -0.280128 0.155631
v -0.258804 -0.280128 0.107200
v -0.274745 -0.280128 0.054650
v -0.280128 -0.280128 -0.000000
v -0.274745 -0.280128 -0.054651
v -0.258804 -0.280128 -0.107201
v -0.232918 -0.280128 -0.155631
v -0.198080 -0.280128 -0.198081
v -0.155630 -0.280128 -0.232918
v -0.107200 -0.280128 -0.258805
v -0.054650 -0.280128 -0.274745
v 0.129402 0.000000 -0.053600
vn 0.000000 0.307600 -0.951500
vn 0.000000 0.787200 -0.616700
vn 0.127900 0.787400 -0.603000
vn 0.186200 0.308500 -0.932800
vn 0.248500 0.788200 -0.562900
vn 0.364600 0.311200 -0.877600
vn 0.355900 0.789500 -0.499900
vn 0.528400 0.314800 -0.788400
vn 0.445800 0.791200 -0.418500
vn 0.671100 0.318900 -0.669200
vn 0.516200 0.792900 -0.323800
vn 0.787600 0.322800 -0.524800
vn 0.566100 0.794400 -0.220200
vn 0.873700 0.326000 -0.361000
vn 0.595700 0.795400 -0.111400
vn 0.926600 0.327900 -0.183900
vn 0.605500 0.795900 0.000000
vn 0.595700 0.795400 0.111400
vn 0.926600 0.327900 0.183900
vn 0.566100 0.794400 0.220200
vn 0.873700 0.326000 0.361000
vn 0.516200 0.792900 0.323800
vn 0.787600 0.322800 0.524800
vn 0.445800 0.791200 0.418500
vn 0.671100 0.318900 0.669200
vn 0.355900 0.789500 0.499900
vn 0.528400 0.314800 0.788400
vn 0.248500 0.788200 0.562900
vn 0.364600 0.311200 0.877600
vn 0.127900 0.787400 0.603000
vn 0.186200 0.308500 0.932800
vn 0.000000 0.787200 0.616700
vn 0.000000 0.307600 0.951500
vn -0.127900 0.787400 0.603000
vn -0.186200 0.308500 0.932800
vn -0.248500 0.788200 0.562900
vn -0.364600 0.311200 0.877600
vn -0.355900 0.789600 0.499900
vn -0.528400 0.314800 0.788400
vn -0.445800 0.791300 0.418500
vn -0.671100 0.318900 0.669200
vn -0.516100 0.792900 0.323800
vn -0.787600 0.322800 0.524800
vn -0.566000 0.794400 0.220200
vn -0.873700 0.326000 0.361000
vn -0.595600 0.795500 0.111400
vn -0.926600 0.327900 0.183900
vn -0.605400 0.795900 0.000000
vn -0.595600 0.795500 -0.111400
vn -0.926600 0.327900 -0.183900
vn -0.566000 0.794400 -0.220200
vn -0.873700 0.326000 -0.361000
vn -0.516100 0.792900 -0.323800
vn -0.787600 0.322800 -0.524800
vn -0.445800 0.791300 -0.418500
vn -0.671100 0.318900 -0.669200
vn -0.355900 0.789600 -0.499900
vn -0.528400 0.314800 -0.788400
vn -0.248500 0.788200 -0.562900
vn -0.364600 0.311200 -0.877600
vn -0.127900 0.787400 -0.603000
vn -0.186200 0.308500 -0.932800
vn -0.193500 0.862700 -0.467200
vn 0.000000 1.000000 0.000000
vn -0.098600 0.862700 -0.495900
vn 0.000000 0.862700 -0.505600
vn 0.098700 0.862700 -0.495900
vn -0.281000 0.862600 -0.420500
vn -0.357700 0.862600 -0.357600
vn -0.420700 0.862500 -0.281000
vn -0.467500 0.862500 -0.193600
vn -0.496300 0.862500 -0.098700
vn -0.506100 0.862500 0.000000
vn -0.496300 0.862500 0.098700
vn -0.467500 0.862500 0.193600
vn -0.420700 0.862500 0.281000
vn -0.357700 0.862600 0.357600
vn -0.281000 0.862600 0.420500
vn -0.193500 0.862700 0.467200
vn -0.098600 0.862700 0.495900
vn 0.000000 0.862700 0.505600
vn 0.098700 0.862700 0.495900
vn 0.193500 0.862700 0.467200
vn 0.281000 0.862600 0.420500
vn 0.357800 0.862600 0.357700
vn 0.420800 0.862500 0.281100
vn 0.467600 0.862500 0.193600
vn 0.496400 0.862400 0.098700
vn 0.506100 0.862400 0.000000
vn 0.496400 0.862400 -0.098700
vn 0.826300 0.447200 -0.342300
vn 0.420800 0.862500 -0.281100
vn 0.357800 0.862600 -0.357700
vn 0.281000 0.862600 -0.420500
vn 0.193500 0.862700 -0.467200
vn 0.467600 0.862500 -0.193600
vn 0.944500 0.328500 0.000000
vn -0.944500 0.328500 0.000000
s 1
f 1//1 2//2 4//3
f 3//4 4//3 6//5
f 5//6 6//5 8//7
f 7//8 8//7 10//9
f 9//10 10//9 12//11
f 11//12 12//11 14//13
f 13//14 14//13 16//15
f 15//16 16//15 18//17
f 18//17 20//18 19//19
f 20//18 22//20 21//21
f 22//20 24//22 23//23
f 24//22 26//24 25//25
f 26//24 28//26 27//27
f 28//26 30//28 29//29
f 30//28 32//30 31//31
f 32//30 34//32 33//33
f 33//33 34//32 36//34
f 35//35 36//34 38//36
f 37//37 38//36 40//38
f 39//39 40//38 42//40
f 41//41 42//40 44//42
f 43//43 44//42 46//44
f 45//45 46//44 48//46
f 47//47 48//46 50//48
f 50//48 52//49 51//50
f 52//49 54//51 53//52
f 54//51 56//53 55//54
f 56//53 58//55 57//56
f 58//55 60//57 59//58
f 60//57 62//59 61//60
f 64//61 2//2 1//1
f 62//59 64//61 63//62
f 96//63 74//64 97//65
f 65//66 74//64 66//67
f 95//68 74//64 96//63
f 94//69 74//64 95//68
f 93//70 74//64 94//69
f 92//71 74//64 93//70
f 91//72 74//64 92//71
f 90//73 74//64 91//72
f 89//74 74//64 90//73
f 88//75 74//64 89//74
f 87//76 74//64 88//75
f 86//77 74//64 87//76
f 85//78 74//64 86//77
f 84//79 74//64 85//78
f 83//80 74//64 84//79
f 82//81 74//64 83//80
f 81//82 74//64 82//81
f 80//83 74//64 81//82
f 79//84 74//64 80//83
f 78//85 74//64 79//84
f 77//86 74//64 78//85
f 76//87 74//64 77//86
f 75//88 74//64 76//87
f 73//89 74//64 75//88
f 72//90 74//64 73//89
f 98//91 74//64 72//90
f 70//92 74//64 98//91
f 69//93 74//64 70//92
f 68//94 74//64 69//93
f 67//95 74//64 68//94
f 97//65 74//64 65//66
f 66//67 74//64 67//95
f 66//67 67//95 6//5
f 67//95 68//94 8//7
f 68//94 69//93 10//9
f 69//93 70//92 12//11
f 70//92 71//96 14//13
f 71//96 72//90 16//15
f 72//90 73//89 18//17
f 18//17 73//89 75//88
f 20//18 75//88 76//87
f 22//20 76//87 77//86
f 24//22 77//86 78//85
f 26//24 78//85 79//84
f 28//26 79//84 80//83
f 30//28 80//83 81//82
f 32//30 81//82 82//81
f 82//81 83//80 36//34
f 83//80 84//79 38//36
f 84//79 85//78 40//38
f 85//78 86//77 42//40
f 86//77 87//76 44//42
f 87//76 88//75 46//44
f 88//75 89//74 48//46
f 89//74 90//73 50//48
f 50//48 90//73 91//72
f 52//49 91//72 92//71
f 54//51 92//71 93//70
f 56//53 93//70 94//69
f 58//55 94//69 95//68
f 60//57 95//68 96//63
f 62//59 96//63 97//65
f 64//61 97//65 65//66
f 65//66 66//67 4//3
f 3//4 1//1 4//3
f 5//6 3//4 6//5
f 7//8 5//6 8//7
f 9//10 7//8 10//9
f 11//12 9//10 12//11
f 13//14 11//12 14//13
f 15//16 13//14 16//15
f 17//97 15//16 18//17
f 17//97 18//17 19//19
f 19//19 20//18 21//21
f 21//21 22//20 23//23
f 23//23 24//22 25//25
f 25//25 26//24 27//27
f 27//27 28//26 29//29
f 29//29 30//28 31//31
f 31//31 32//30 33//33
f 35//35 33//33 36//34
f 37//37 35//35 38//36
f 39//39 37//37 40//38
f 41//41 39//39 42//40
f 43//43 41//41 44//42
f 45//45 43//43 46//44
f 47//47 45//45 48//46
f 49//98 47//47 50//48
f 49//98 50//48 51//50
f 51//50 52//49 53//52
f 53//52 54//51 55//54
f 55//54 56//53 57//56
f 57//56 58//55 59//58
f 59//58 60//57 61//60
f 63//62 64//61 1//1
f 61//60 62//59 63//62
f 71//96 98//91 72//90
f 71//96 70//92 98//91
f 4//3 66//67 6//5
f 6//5 67//95 8//7
f 8//7 68//94 10//9
f 10//9 69//93 12//11
f 12//11 70//92 14//13
f 14//13 71//96 16//15
f 16//15 72//90 18//17
f 20//18 18//17 75//88
f 22//20 20//18 76//87
f 24//22 22//20 77//86
f 26//24 24//22 78//85
f 28//26 26//24 79//84
f 30//28 28//26 80//83
f 32//30 30//28 81//82
f 34//32 32//30 82//81
f 34//32 82//81 36//34
f 36//34 83//80 38//36
f 38//36 84//79 40//38
f 40//38 85//78 42//40
f 42//40 86//77 44//42
f 44//42 87//76 46//44
f 46//44 88//75 48//46
f 48//46 89//74 50//48
f 52//49 50//48 91//72
f 54//51 52//49 92//71
f 56//53 54//51 93//70
f 58//55 56//53 94//69
f 60//57 58//55 95//68
f 62//59 60//57 96//63
f 64//61 62//59 97//65
f 2//2 64//61 65//66
f 2//2 65//66 4//3
